<svg width="40" height="40" viewBox="0 0 40 40" xmlns="http://www.w3.org/2000/svg">
    <path fill="#b4cc31" d="M20.6,39.2c-1.3,0-2.9-0.1-4.7-0.4l-0.4-0.1l-0.1-1.2c-0.1-0.7-0.1-1.4-0.2-2.1c0-0.2,0-0.2-0.2-0.3c-0.8-0.3-1.6-0.6-2.4-1c0,0-0.1,0-0.1,0c0,0,0,0-0.1,0.1c-0.6,0.5-1.1,1-1.7,1.4l-0.9,0.7l-0.3-0.2c-2.4-1.5-4.3-3.4-5.9-5.8l-0.2-0.3l0.8-0.9c0.5-0.6,0.9-1.1,1.4-1.7c0.1-0.1,0.1-0.1,0.1-0.1c-0.2-0.5-0.4-0.9-0.6-1.3c-0.2-0.4-0.3-0.8-0.5-1.3l0,0c0,0-0.1,0-0.1,0c-0.8-0.1-1.6-0.1-2.4-0.2c-0.7,0-1.1-0.4-1.2-1.1c-0.4-2.3-0.4-4.7,0-7c0.1-0.7,0.5-1.1,1.2-1.1c0.3,0,0.7,0,1-0.1c0.4,0,0.8-0.1,1.2-0.1c0.2,0,0.2,0,0.3-0.2c0.2-0.8,0.6-1.5,1-2.4c0-0.1,0-0.1,0-0.1l0,0c0,0,0,0-0.1-0.1c-0.5-0.5-0.9-1.1-1.4-1.6L3.5,9.9l0.2-0.3c1.5-2.3,3.4-4.3,5.9-5.9l0.3-0.2l0.9,0.8c0.5,0.5,1.1,0.9,1.6,1.4c0.1,0.1,0.1,0.1,0.1,0.1c0,0,0,0,0.1,0c0.4-0.2,0.9-0.4,1.3-0.6c0.4-0.1,0.7-0.3,1.1-0.5c0,0,0.1-0.1,0.1-0.1c0.1-0.8,0.2-1.7,0.2-2.6c0-0.6,0.3-0.9,0.9-1c2.4-0.4,4.9-0.4,7.4,0c0.6,0.1,0.9,0.4,0.9,1l0,0.5c0,0.6,0.1,1.2,0.1,1.8c0,0.2,0,0.2,0.2,0.3c0.7,0.2,1.3,0.5,2,0.8c0.2,0.1,0.4,0.1,0.5,0.2L30,3.5l0.3,0.2c2.3,1.5,4.3,3.4,5.9,5.8l0.2,0.3l-0.8,0.9c-0.5,0.6-0.9,1.1-1.4,1.7c-0.1,0.1-0.1,0.1,0,0.2c0.2,0.4,0.3,0.8,0.5,1.2c0.2,0.4,0.3,0.8,0.5,1.3c0,0,0.1,0.1,0.1,0.1c0.8,0.1,1.6,0.2,2.5,0.2c0.7,0,1,0.4,1.2,1c0.4,2.3,0.4,4.7,0,7.2c-0.1,0.6-0.4,0.9-1,0.9l-0.7,0.1c-0.6,0-1.1,0.1-1.7,0.1c-0.2,0-0.2,0-0.3,0.2c-0.2,0.7-0.5,1.5-1,2.4c0,0.1,0,0.1,0,0.1c0.3,0.4,0.6,0.7,0.8,1c0.3,0.3,0.6,0.7,0.9,1c0.4,0.4,0.4,0.9,0.1,1.4c-1.5,2.2-3.3,3.9-5.6,5.4l-0.3,0.2l-2.7-2.2L27,34.5c-0.7,0.3-1.5,0.6-2.2,0.9c0,0,0,0,0,0.1c-0.1,0.7-0.1,1.5-0.2,2.2l-0.1,1.1l-0.3,0.1C23.3,39.1,22.1,39.2,20.6,39.2z M16.4,37.9c3.3,0.4,5.7,0.4,7.1,0l0-0.4c0.1-0.7,0.1-1.5,0.2-2.2c0-0.3,0.2-0.7,0.6-0.9c0.7-0.3,1.5-0.6,2.2-0.9l1-0.4l2.6,2.1c2-1.4,3.6-3,5-4.9c0,0,0-0.1,0.1-0.1c0,0,0,0-0.1-0.1c-0.3-0.3-0.6-0.7-0.9-1.1c-0.3-0.3-0.5-0.6-0.8-0.9c-0.3-0.4-0.4-0.8-0.2-1.2c0.4-0.9,0.7-1.6,0.9-2.3c0.2-0.6,0.6-0.9,1.2-0.9c0.6,0,1.1-0.1,1.7-0.1l0.7,0c0.1,0,0.1,0,0.1,0c0.4-2.5,0.4-4.7,0-6.9c0-0.1-0.1-0.2-0.1-0.2v0c0,0,0,0-0.2,0c-0.9-0.1-1.8-0.1-2.6-0.2c-0.3,0-0.7-0.3-0.9-0.6c-0.2-0.4-0.4-0.9-0.5-1.3c-0.2-0.4-0.3-0.8-0.5-1.2c-0.2-0.5-0.2-0.9,0.2-1.2c0.5-0.5,0.9-1.1,1.4-1.7l0.3-0.4c-1.4-2.1-3.1-3.7-5.1-5l-2.5,2.1l-0.3-0.1c-0.3-0.1-0.6-0.2-0.8-0.3c-0.6-0.3-1.3-0.5-1.9-0.7c-0.8-0.3-0.9-0.8-0.9-1.2c0-0.6-0.1-1.2-0.1-1.8l0-0.5c0-0.1,0-0.1,0-0.1c-2.4-0.4-4.8-0.4-7.1,0c-0.1,0.9-0.2,1.8-0.3,2.7c0,0.4-0.4,0.7-0.7,0.9c-0.4,0.2-0.8,0.3-1.1,0.5c-0.4,0.2-0.8,0.3-1.3,0.5c-0.5,0.2-0.9,0.2-1.3-0.2c-0.5-0.5-1.1-0.9-1.6-1.4L9.8,4.8C7.7,6.2,6.1,7.9,4.7,9.9L5,10.2c0.4,0.5,0.9,1.1,1.4,1.6c0.4,0.4,0.4,0.8,0.2,1.3c-0.4,0.8-0.7,1.5-0.9,2.2c-0.2,0.8-0.8,0.9-1.2,0.9c-0.4,0-0.8,0-1.2,0.1c-0.3,0-0.7,0-1,0.1c-0.2,0-0.2,0-0.2,0c0,0,0,0-0.1,0.2c-0.4,2.2-0.4,4.4,0,6.7c0,0.2,0.1,0.2,0.1,0.2l0,0c0,0,0,0,0.2,0c0.8,0.1,1.6,0.1,2.5,0.2c0.3,0,0.7,0.3,0.9,0.6c0.2,0.4,0.4,0.9,0.5,1.3c0.2,0.4,0.3,0.8,0.5,1.2c0.3,0.6,0,1-0.2,1.2c-0.5,0.5-0.9,1.1-1.4,1.7l-0.3,0.4c1.4,2,3,3.7,5,5l0.3-0.3c0.6-0.5,1.1-0.9,1.7-1.4c0.4-0.3,0.8-0.4,1.2-0.2c0.7,0.4,1.5,0.7,2.3,1c0.6,0.2,0.9,0.6,0.9,1.2c0,0.7,0.1,1.4,0.1,2L16.4,37.9z"/>
    <path fill="#61923e" d="M20,7.8C13.3,7.8,7.8,13.3,7.8,20S13.3,32.2,20,32.2S32.2,26.7,32.2,20S26.7,7.8,20,7.8z M20,27c-3.9,0-7-3.1-7-7c0-3.9,3.1-7,7-7s7,3.1,7,7C27,23.8,23.8,27,20,27z"/>
    <path fill="#b4cc31" d="M13,20c0-3.9,3.1-7,7-7V7.8C13.3,7.8,7.8,13.3,7.8,20S13.3,32.2,20,32.2V27C16.1,27,13,23.8,13,20z"/>
    <path fill="#b4cc31" d="M20,24.7c-2.6,0-4.7-2.1-4.7-4.7s2.1-4.7,4.7-4.7s4.7,2.1,4.7,4.7S22.6,24.7,20,24.7z M20,16.3c-2.1,0-3.7,1.7-3.7,3.7s1.7,3.7,3.7,3.7s3.7-1.7,3.7-3.7S22.1,16.3,20,16.3z"/>
</svg>
