<svg width="32" height="32" viewBox="0 0 32 32" xmlns="http://www.w3.org/2000/svg">
    <g fill="none" fill-rule="evenodd" id="Page-1" stroke="none" stroke-width="1">
        <path d="M26.11,10.18C24.05,7.06 20.52,5 16.5,5C12.48,5 8.95,7.06 6.89,10.18L6.89,10.18C9.33,9.91 13.37,9.94 16.31,10.67C16.37,10.69 16.44,10.7 16.5,10.71C16.56,10.7 16.63,10.69 16.69,10.67C19.63,9.94 23.67,9.91 26.11,10.18L26.11,10.18ZM26.86,11.49C27.59,13.01 28,14.71 28,16.5C28,22.85 22.85,28 16.5,28C10.15,28 5,22.85 5,16.5C5,14.71 5.41,13.01 6.14,11.49C6.16,11.51 6.18,11.52 6.19,11.52C6.65,11.69 6.85,12.11 6.85,12.11C6.85,12.11 6.99,12.48 7.38,14C7.78,15.5 8.73,15.71 8.73,15.71C8.73,15.71 9.89,15.97 11.23,15.97C12.57,15.97 13.37,15.9 14.23,15.52C15.09,15.13 15.47,14.04 15.47,14.04C15.47,14.04 15.9,13.11 16.2,12.22C16.24,12.09 16.36,12 16.5,11.94C16.64,12 16.76,12.09 16.8,12.22C17.1,13.11 17.53,14.04 17.53,14.04C17.53,14.04 17.91,15.13 18.77,15.52C19.63,15.9 20.43,15.97 21.77,15.97C23.11,15.97 24.27,15.71 24.27,15.71C24.27,15.71 25.22,15.5 25.62,14C26.01,12.48 26.15,12.11 26.15,12.11C26.15,12.11 26.35,11.69 26.81,11.52C26.82,11.52 26.84,11.51 26.86,11.49L26.86,11.49ZM16.5,29C23.4,29 29,23.4 29,16.5C29,9.6 23.4,4 16.5,4C9.6,4 4,9.6 4,16.5C4,23.4 9.6,29 16.5,29L16.5,29ZM16.48,22C13,22 11,20 11,20L11,21C11,21 13,23 16.48,23C19.96,23 22,21 22,21L22,20C22,20 19.96,22 16.48,22L16.48,22Z" fill="#929292"/>
    </g>
</svg>
