<svg width="34" height="34" viewBox="0 0 34 34" xmlns="http://www.w3.org/2000/svg">
    <circle fill="#c02d46" cx="16.8" cy="17" r="11.8"/>

    <path fill="#e14e48" d="M16.8,5.2C10.3,5.2,5,10.5,5,17s5.3,11.8,11.8,11.8V5.2z"/>

    <g fill="#fff">
        <path class="st2" d="M17,33.1C8.1,33.1,.9,25.9,.9,17S8.1,.9,17,.9S33.1,8.1,33.1,17S25.9,33.1,17,33.1z M17,1.9C8.7,1.9,1.9,8.7,1.9,17c0,8.3,6.8,15.1,15.1,15.1S32.1,25.3,32.1,17C32.1,8.7,25.3,1.9,17,1.9z"/>
        <path class="st2" d="M13.4,15.5c-.1,0-.1,0-.2,0c-.5,0-.9-.3-1.2-.7c-.6-.8-.5-1.9,.3-2.6c.4-.3,.8-.5,1.3-.4c.5,0,.9,.3,1.2,.7c.6,.8,.5,1.9-.3,2.6l0,0C14.2,15.3,13.8,15.5,13.4,15.5z M13.4,12.8c-.2,0-.4,.1-.5,.2c-.2,.1-.3,.3-.3,.6c0,.2,0,.4,.2,.6s.3,.3,.6,.3c.2,0,.4,0,.6-.2l0,0c.3-.3,.4-.8,.1-1.1C13.9,13,13.7,12.9,13.4,12.8C13.5,12.8,13.4,12.8,13.4,12.8z"/>
        <path class="st2" d="M20.8,15.5c-.5,0-1-.2-1.4-.7c-.6-.8-.5-1.9,.3-2.6c.4-.3,.8-.5,1.3-.4c.5,0,.9,.3,1.2,.7c.6,.8,.5,1.9-.3,2.6l0,0C21.7,15.3,21.2,15.5,20.8,15.5z M20.8,12.8c-.2,0-.4,.1-.5,.2c-.3,.3-.4,.8-.1,1.1c.1,.2,.3,.3,.6,.3c.2,0,.4,0,.6-.2l0,0c.3-.3,.4-.8,.1-1.1C21.3,13,21.1,12.9,20.8,12.8C20.9,12.8,20.9,12.8,20.8,12.8z"/>
        <path class="st2" d="M17,24.2c-2.4,0-4.7-1.3-5.9-3.4c-0.1-.2-.1-.5,.2-.7c.2-.1,.5-.1,.7,.2c1,1.8,3,2.9,5.1,2.9c2.1,0,4-1.1,5.1-2.9c.1-.2,.4-.3,.7-.2c.2,.1,.3,.4,.2,.7C21.7,22.9,19.4,24.2,17,24.2z"/>
    </g>
</svg>
