<svg width="32" height="32" viewBox="0 0 32 32" xmlns="http://www.w3.org/2000/svg">
    <g fill="none" fill-rule="evenodd" stroke="none" stroke-width="1">
        <path d="M20.11,12.5L19.06,11.8L19.62,10.97L21,11.9L22.38,10.97L22.94,11.8L21.89,12.5L22.94,13.2L22.38,14.03L21,13.1L19.62,14.03L19.06,13.2L20.11,12.5L20.11,12.5ZM11.11,12.5L10.06,11.8L10.62,10.97L12,11.9L13.38,10.97L13.94,11.8L12.89,12.5L13.94,13.2L13.38,14.03L12,13.1L10.62,14.03L10.06,13.2L11.11,12.5L11.11,12.5ZM16.5,29C23.4,29 29,23.4 29,16.5C29,9.6 23.4,4 16.5,4C9.6,4 4,9.6 4,16.5C4,23.4 9.6,29 16.5,29L16.5,29ZM16.5,28C22.85,28 28,22.85 28,16.5C28,10.15 22.85,5 16.5,5C10.15,5 5,10.15 5,16.5C5,22.85 10.15,28 16.5,28L16.5,28ZM16.5,24C17.88,24 19,22.88 19,21.5C19,20.12 17.88,19 16.5,19C15.12,19 14,20.12 14,21.5C14,22.88 15.12,24 16.5,24L16.5,24ZM16.5,23C17.33,23 18,22.33 18,21.5C18,20.67 17.33,20 16.5,20C15.67,20 15,20.67 15,21.5C15,22.33 15.67,23 16.5,23L16.5,23Z" fill="#929292"/>
        </g>
</svg>
